<svg width="22" height="24" viewBox="0 0 22 24" fill="none" xmlns="http://www.w3.org/2000/svg">
<ellipse cx="5.15103" cy="13.7367" rx="3.75406" ry="4.57895" fill="#A4A4A4"/>
<ellipse cx="16.675" cy="14.3685" rx="3.75406" ry="4.57895" fill="#A4A4A4"/>
<rect x="2.79395" y="6" width="16.2385" height="13.5789" rx="6.78947" fill="#ACAFAD"/>
<ellipse cx="11.0876" cy="3.39474" rx="3.75406" ry="3.39474" fill="#AEB0AF"/>
<path d="M8.08872 1.26318C7.41422 1.26318 6.81124 1.65654 6.59807 2.23553L6.24818 3.1829C5.91439 4.08981 6.68277 5.05266 7.73984 5.05266H8.38132V6.47371H7.06153C5.65533 6.47371 4.41181 7.31492 3.99431 8.53868V8.5396L2.77888 12.108C2.19201 13.8312 1.97084 14.7757 2.17014 16.6061L2.30723 17.8662C2.17623 17.8521 2.04449 17.8421 1.9113 17.8421C0.768678 17.8421 -0.138676 18.7579 0.0175548 19.7776L0.240589 21.2255C0.325105 21.7743 0.703933 22.2511 1.25038 22.505L4.0516 23.8067C4.32438 23.9336 4.62711 24 4.93453 24H17.0663C17.3738 24 17.6766 23.9339 17.9493 23.8067L20.7495 22.505C21.2959 22.2511 21.6758 21.7743 21.7603 21.2255L21.9823 19.7776C22.1393 18.7578 21.2322 17.8421 20.0896 17.8421C19.9564 17.8421 19.8247 17.8521 19.6936 17.8662L19.8297 16.6061C20.029 14.7757 19.8078 13.8312 19.221 12.108L18.0055 8.5396C17.5891 7.3154 16.3445 6.47371 14.9383 6.47371H13.6195V5.05266H14.261C15.3181 5.05266 16.0865 4.08981 15.7527 3.1829L15.4028 2.23553V2.23461C15.1895 1.65634 14.5864 1.26318 13.9121 1.26318H8.08872ZM8.08872 2.21055H13.9121C14.1397 2.21055 14.3375 2.33903 14.4094 2.53436L14.7582 3.48173C14.876 3.80166 14.634 4.10529 14.261 4.10529H7.73984C7.36688 4.10529 7.12487 3.80166 7.24262 3.48173L7.59149 2.53436C7.66329 2.33936 7.86119 2.21055 8.08872 2.21055ZM9.42896 5.05266H12.5719V6.47371H9.42896V5.05266ZM7.06153 7.42108H14.9383C15.8841 7.42108 16.7195 7.98176 17.0039 8.81808L18.2194 12.3864C18.7985 14.087 18.9766 14.7743 18.7872 16.5136L18.6092 18.1539C18.3399 18.2741 18.0883 18.4276 17.8623 18.6119L17.6014 18.8237C17.3907 18.9946 17.1048 19.0638 16.828 19.0078H16.8269C15.61 18.7623 13.4416 18.276 11.0015 18.276C8.56123 18.276 6.3915 18.7628 5.17495 19.0078C4.89694 19.064 4.61017 18.9953 4.40047 18.8247L4.13856 18.6109V18.6119C3.91207 18.4276 3.66022 18.2742 3.39068 18.1539L3.21267 16.5136C3.02329 14.7743 3.20132 14.087 3.78048 12.3864L4.99591 8.81808C5.28139 7.98129 6.11577 7.42108 7.06153 7.42108ZM11.0045 8.84213C9.60561 8.84066 8.1756 9.09992 7.44212 9.96436C7.28899 10.1448 7.23197 10.3135 7.15975 10.5324C7.08753 10.7513 7.02168 11.0113 6.9582 11.3077C6.83124 11.9005 6.71573 12.6372 6.61649 13.4217C6.41801 14.9906 6.28603 16.7369 6.28603 17.8421H7.33367C7.33367 16.8068 7.4636 15.0665 7.65799 13.5299C7.75519 12.7616 7.86885 12.0409 7.98743 11.4872C8.04672 11.2103 8.10773 10.9753 8.16442 10.8035C8.22111 10.6316 8.29505 10.5146 8.27287 10.5407C8.60328 10.1513 9.78906 9.78823 11.0035 9.7895C12.2179 9.79078 13.4032 10.1578 13.728 10.5407C13.7058 10.5146 13.7797 10.6316 13.8364 10.8035C13.8931 10.9753 13.9541 11.2103 14.0134 11.4872C14.132 12.0409 14.2457 12.7616 14.3429 13.5299C14.5373 15.0665 14.6672 16.8068 14.6672 17.8421H15.7148C15.7148 16.7369 15.5829 14.9906 15.3844 13.4217C15.2851 12.6372 15.1696 11.9005 15.0427 11.3077C14.9792 11.0113 14.9133 10.7513 14.8411 10.5324C14.7689 10.3135 14.7119 10.1448 14.5587 9.96436C13.8291 9.1043 12.4034 8.84359 11.0045 8.84213ZM1.9113 18.7895C2.47798 18.7895 3.02267 18.9782 3.43775 19.3159H3.43877L3.69966 19.5287C3.98499 19.7609 4.34254 19.8723 4.71456 19.921V23.0045C4.65338 22.9899 4.58788 22.991 4.53143 22.9648H4.53041L1.72919 21.6631C1.48047 21.5475 1.31501 21.3353 1.278 21.095L1.05497 19.6471C0.984908 19.1899 1.37349 18.7895 1.9113 18.7895ZM20.0896 18.7895C20.6274 18.7895 21.0152 19.19 20.9449 19.6471L20.7218 21.095C20.6848 21.3353 20.5194 21.5475 20.2707 21.6631L17.4694 22.9648H17.4684C17.4126 22.9908 17.3472 22.9899 17.2863 23.0045V19.9201C17.6585 19.8714 18.0156 19.7604 18.3012 19.5287L18.5641 19.3159C18.9779 18.9786 19.5229 18.7895 20.0896 18.7895ZM11.0015 19.2234C13.1163 19.2234 14.9774 19.6081 16.2387 19.8655V23.0527H5.76221V19.8655C7.0237 19.6084 8.88661 19.2234 11.0015 19.2234Z" fill="#C4C4C4"/>
</svg>
