<svg width="22" height="27" viewBox="0 0 22 27" fill="none" xmlns="http://www.w3.org/2000/svg">
<ellipse cx="5.15103" cy="15.1911" rx="3.75406" ry="5.06362" fill="#374A42"/>
<ellipse cx="16.675" cy="15.8893" rx="3.75406" ry="5.06362" fill="#374A42"/>
<rect x="2.79395" y="6.63525" width="16.2385" height="15.0162" rx="7.50812" fill="#808E88"/>
<circle cx="11.0876" cy="3.75406" r="3.75406" fill="#2C654B"/>
<path d="M8.08872 1.39697C7.41422 1.39697 6.81124 1.83196 6.59807 2.47224L6.24818 3.51989C5.91439 4.52279 6.68277 5.58755 7.73984 5.58755H8.38132V7.15902H7.06153C5.65533 7.15902 4.41181 8.08927 3.99431 9.44256V9.44358L2.77888 13.3896C2.19201 15.2952 1.97084 16.3398 2.17014 18.3639L2.30723 19.7574C2.17623 19.7418 2.04449 19.7308 1.9113 19.7308C0.768678 19.7308 -0.138676 20.7434 0.0175548 21.8711L0.240589 23.4722C0.325105 24.0791 0.703933 24.6063 1.25038 24.8871L4.0516 26.3266C4.32438 26.467 4.62711 26.5404 4.93453 26.5404H17.0663C17.3738 26.5404 17.6766 26.4673 17.9493 26.3266L20.7495 24.8871C21.2959 24.6063 21.6758 24.0791 21.7603 23.4722L21.9823 21.8711C22.1393 20.7433 21.2322 19.7308 20.0896 19.7308C19.9564 19.7308 19.8247 19.7418 19.6936 19.7574L19.8297 18.3639C20.029 16.3398 19.8078 15.2952 19.221 13.3896L18.0055 9.44358C17.5891 8.08979 16.3445 7.15902 14.9383 7.15902H13.6195V5.58755H14.261C15.3181 5.58755 16.0865 4.52279 15.7527 3.51989L15.4028 2.47224V2.47122C15.1895 1.83175 14.5864 1.39697 13.9121 1.39697H8.08872ZM8.08872 2.44462H13.9121C14.1397 2.44462 14.3375 2.58669 14.4094 2.8027L14.7582 3.85034C14.876 4.20414 14.634 4.53991 14.261 4.53991H7.73984C7.36688 4.53991 7.12487 4.20414 7.24262 3.85034L7.59149 2.8027C7.66329 2.58705 7.86119 2.44462 8.08872 2.44462ZM9.42896 5.58755H12.5719V7.15902H9.42896V5.58755ZM7.06153 8.20666H14.9383C15.8841 8.20666 16.7195 8.82669 17.0039 9.75153L18.2194 13.6976C18.7985 15.5782 18.9766 16.3382 18.7872 18.2616L18.6092 20.0755C18.3399 20.2085 18.0883 20.3782 17.8623 20.582L17.6014 20.8163C17.3907 21.0052 17.1048 21.0818 16.828 21.0198H16.8269C15.61 20.7483 13.4416 20.2106 11.0015 20.2106C8.56123 20.2106 6.3915 20.7489 5.17495 21.0198C4.89694 21.082 4.61017 21.006 4.40047 20.8173L4.13856 20.5809V20.582C3.91207 20.3782 3.66022 20.2086 3.39068 20.0755L3.21267 18.2616C3.02329 16.3382 3.20132 15.5782 3.78048 13.6976L4.99591 9.75153C5.28139 8.82617 6.11577 8.20666 7.06153 8.20666ZM11.0045 9.77813C9.60561 9.77651 8.1756 10.0632 7.44212 11.0191C7.28899 11.2187 7.23197 11.4052 7.15975 11.6473C7.08753 11.8894 7.02168 12.1769 6.9582 12.5047C6.83124 13.1602 6.71573 13.975 6.61649 14.8424C6.41801 16.5774 6.28603 18.5085 6.28603 19.7308H7.33367C7.33367 18.5858 7.4636 16.6614 7.65799 14.9621C7.75519 14.1125 7.86885 13.3154 7.98743 12.7031C8.04672 12.397 8.10773 12.1371 8.16442 11.9471C8.22111 11.7571 8.29505 11.6276 8.27287 11.6565C8.60328 11.2259 9.78906 10.8244 11.0035 10.8258C12.2179 10.8272 13.4032 11.2331 13.728 11.6565C13.7058 11.6276 13.7797 11.7571 13.8364 11.9471C13.8931 12.1371 13.9541 12.397 14.0134 12.7031C14.132 13.3154 14.2457 14.1125 14.3429 14.9621C14.5373 16.6614 14.6672 18.5858 14.6672 19.7308H15.7148C15.7148 18.5085 15.5829 16.5774 15.3844 14.8424C15.2851 13.975 15.1696 13.1602 15.0427 12.5047C14.9792 12.1769 14.9133 11.8894 14.8411 11.6473C14.7689 11.4052 14.7119 11.2187 14.5587 11.0191C13.8291 10.068 12.4034 9.77974 11.0045 9.77813ZM1.9113 20.7784C2.47798 20.7784 3.02267 20.9871 3.43775 21.3605H3.43877L3.69966 21.5958C3.98499 21.8526 4.34254 21.9758 4.71456 22.0296V25.4396C4.65338 25.4234 4.58788 25.4246 4.53143 25.3956H4.53041L1.72919 23.9561C1.48047 23.8283 1.31501 23.5937 1.278 23.3279L1.05497 21.7268C0.984908 21.2211 1.37349 20.7784 1.9113 20.7784ZM20.0896 20.7784C20.6274 20.7784 21.0152 21.2213 20.9449 21.7268L20.7218 23.3279C20.6848 23.5937 20.5194 23.8283 20.2707 23.9561L17.4694 25.3956H17.4684C17.4126 25.4244 17.3472 25.4234 17.2863 25.4396V22.0286C17.6585 21.9749 18.0156 21.852 18.3012 21.5958L18.5641 21.3605C18.9779 20.9875 19.5229 20.7784 20.0896 20.7784ZM11.0015 21.2582C13.1163 21.2582 14.9774 21.6837 16.2387 21.9683V25.4928H5.76221V21.9683C7.0237 21.684 8.88661 21.2582 11.0015 21.2582Z" fill="#2287BC"/>
</svg>
