<svg width="22" height="24" viewBox="0 0 22 24" fill="none" xmlns="http://www.w3.org/2000/svg">
<path d="M8.08872 0C7.41422 0 6.81124 0.415205 6.59807 1.02637L6.24818 2.02637C5.91439 2.98366 6.68277 4 7.73984 4H8.38132V5.5H7.06153C5.65533 5.5 4.41181 6.38794 3.99431 7.67969V7.68066L2.77888 11.4473C2.19201 13.2662 1.97084 14.2632 2.17014 16.1953L2.30723 17.5254C2.17623 17.5105 2.04449 17.5 1.9113 17.5C0.768678 17.5 -0.138676 18.4666 0.0175548 19.543L0.240589 21.0713C0.325105 21.6506 0.703933 22.1539 1.25038 22.4219L4.0516 23.7959C4.32438 23.9299 4.62711 24 4.93453 24H17.0663C17.3738 24 17.6766 23.9302 17.9493 23.7959L20.7495 22.4219C21.2959 22.1539 21.6758 21.6506 21.7603 21.0713L21.9823 19.543C22.1393 18.4665 21.2322 17.5 20.0896 17.5C19.9564 17.5 19.8247 17.5105 19.6936 17.5254L19.8297 16.1953C20.029 14.2632 19.8078 13.2662 19.221 11.4473L18.0055 7.68066C17.5891 6.38845 16.3445 5.5 14.9383 5.5H13.6195V4H14.261C15.3181 4 16.0865 2.98366 15.7527 2.02637L15.4028 1.02637V1.02539C15.1895 0.415003 14.5864 0 13.9121 0H8.08872ZM8.08872 1H13.9121C14.1397 1 14.3375 1.13561 14.4094 1.3418L14.7582 2.3418C14.876 2.6795 14.634 3 14.261 3H7.73984C7.36688 3 7.12487 2.6795 7.24262 2.3418L7.59149 1.3418C7.66329 1.13596 7.86119 1 8.08872 1ZM9.42896 4H12.5719V5.5H9.42896V4ZM7.06153 6.5H14.9383C15.8841 6.5 16.7195 7.09183 17.0039 7.97461L18.2194 11.7412C18.7985 13.5363 18.9766 14.2617 18.7872 16.0977L18.6092 17.8291C18.3399 17.956 18.0883 18.118 17.8623 18.3125L17.6014 18.5361C17.3907 18.7165 17.1048 18.7896 16.828 18.7305H16.8269C15.61 18.4712 13.4416 17.958 11.0015 17.958C8.56123 17.958 6.3915 18.4718 5.17495 18.7305C4.89694 18.7898 4.61017 18.7172 4.40047 18.5371L4.13856 18.3115V18.3125C3.91207 18.118 3.66022 17.9561 3.39068 17.8291L3.21267 16.0977C3.02329 14.2617 3.20132 13.5363 3.78048 11.7412L4.99591 7.97461C5.28139 7.09133 6.11577 6.5 7.06153 6.5ZM11.0045 8C9.60561 7.99845 8.1756 8.27211 7.44212 9.18457C7.28899 9.37503 7.23197 9.55311 7.15975 9.78418C7.08753 10.0153 7.02168 10.2897 6.9582 10.6025C6.83124 11.2283 6.71573 12.006 6.61649 12.834C6.41801 14.49 6.28603 16.3334 6.28603 17.5H7.33367C7.33367 16.4071 7.4636 14.5702 7.65799 12.9482C7.75519 12.1373 7.86885 11.3764 7.98743 10.792C8.04672 10.4998 8.10773 10.2517 8.16442 10.0703C8.22111 9.88893 8.29505 9.76539 8.27287 9.79297C8.60328 9.38193 9.78906 8.99866 11.0035 9C12.2179 9.00135 13.4032 9.38881 13.728 9.79297C13.7058 9.76538 13.7797 9.88893 13.8364 10.0703C13.8931 10.2517 13.9541 10.4998 14.0134 10.792C14.132 11.3764 14.2457 12.1373 14.3429 12.9482C14.5373 14.5702 14.6672 16.4071 14.6672 17.5H15.7148C15.7148 16.3334 15.5829 14.49 15.3844 12.834C15.2851 12.006 15.1696 11.2283 15.0427 10.6025C14.9792 10.2897 14.9133 10.0153 14.8411 9.78418C14.7689 9.55311 14.7119 9.37503 14.5587 9.18457C13.8291 8.27673 12.4034 8.00154 11.0045 8ZM1.9113 18.5C2.47798 18.5 3.02267 18.6992 3.43775 19.0557H3.43877L3.69966 19.2803C3.98499 19.5254 4.34254 19.643 4.71456 19.6943V22.9492C4.65338 22.9337 4.58788 22.9349 4.53143 22.9072H4.53041L1.72919 21.5332C1.48047 21.4112 1.31501 21.1873 1.278 20.9336L1.05497 19.4053C0.984908 18.9226 1.37349 18.5 1.9113 18.5ZM20.0896 18.5C20.6274 18.5 21.0152 18.9227 20.9449 19.4053L20.7218 20.9336C20.6848 21.1873 20.5194 21.4112 20.2707 21.5332L17.4694 22.9072H17.4684C17.4126 22.9347 17.3472 22.9338 17.2863 22.9492V19.6934C17.6585 19.6421 18.0156 19.5248 18.3012 19.2803L18.5641 19.0557C18.9779 18.6996 19.5229 18.5 20.0896 18.5ZM11.0015 18.958C13.1163 18.958 14.9774 19.3641 16.2387 19.6357V23H5.76221V19.6357C7.0237 19.3644 8.88661 18.958 11.0015 18.958Z" fill="#C4C4C4"/>
</svg>
