<svg width="25" height="24" viewBox="0 0 25 24" fill="none" xmlns="http://www.w3.org/2000/svg">
<mask id="mask0_297_1336" style="mask-type:alpha" maskUnits="userSpaceOnUse" x="0" y="0" width="25" height="24">
<rect x="0.666626" width="24" height="24" fill="#D9D9D9"/>
</mask>
<g mask="url(#mask0_297_1336)">
<path d="M7.16663 17.5L14.6666 14L18.1666 6.5L10.6666 10L7.16663 17.5ZM12.6666 13C12.3833 13 12.1458 12.9042 11.9541 12.7125C11.7625 12.5208 11.6666 12.2833 11.6666 12C11.6666 11.7167 11.7625 11.4792 11.9541 11.2875C12.1458 11.0958 12.3833 11 12.6666 11C12.95 11 13.1875 11.0958 13.3791 11.2875C13.5708 11.4792 13.6666 11.7167 13.6666 12C13.6666 12.2833 13.5708 12.5208 13.3791 12.7125C13.1875 12.9042 12.95 13 12.6666 13ZM12.6666 22C11.2833 22 9.98329 21.7375 8.76663 21.2125C7.54996 20.6875 6.49163 19.975 5.59163 19.075C4.69163 18.175 3.97913 17.1167 3.45413 15.9C2.92913 14.6833 2.66663 13.3833 2.66663 12C2.66663 10.6167 2.92913 9.31667 3.45413 8.1C3.97913 6.88333 4.69163 5.825 5.59163 4.925C6.49163 4.025 7.54996 3.3125 8.76663 2.7875C9.98329 2.2625 11.2833 2 12.6666 2C14.05 2 15.35 2.2625 16.5666 2.7875C17.7833 3.3125 18.8416 4.025 19.7416 4.925C20.6416 5.825 21.3541 6.88333 21.8791 8.1C22.4041 9.31667 22.6666 10.6167 22.6666 12C22.6666 13.3833 22.4041 14.6833 21.8791 15.9C21.3541 17.1167 20.6416 18.175 19.7416 19.075C18.8416 19.975 17.7833 20.6875 16.5666 21.2125C15.35 21.7375 14.05 22 12.6666 22ZM12.6666 20C14.9 20 16.7916 19.225 18.3416 17.675C19.8916 16.125 20.6666 14.2333 20.6666 12C20.6666 9.76667 19.8916 7.875 18.3416 6.325C16.7916 4.775 14.9 4 12.6666 4C10.4333 4 8.54163 4.775 6.99163 6.325C5.44163 7.875 4.66663 9.76667 4.66663 12C4.66663 14.2333 5.44163 16.125 6.99163 17.675C8.54163 19.225 10.4333 20 12.6666 20Z" fill="#959595"/>
</g>
</svg>